HIERARCHY
ROOT Hips
{
	OFFSET 1.277878 86.131134 4.395954
	CHANNELS 6 Xposition Yposition Zposition Zrotation Yrotation Xrotation 
	JOINT Spine
	{
		OFFSET -0.000000 8.814246 -2.080107
		CHANNELS 3 Zrotation Yrotation Xrotation
		JOINT Spine1
		{
			OFFSET -0.000000 8.844141 0.000000
			CHANNELS 3 Zrotation Yrotation Xrotation
			JOINT Spine2
			{
				OFFSET 0.000000 11.682268 0.000000
				CHANNELS 3 Zrotation Yrotation Xrotation
				JOINT Spine3
				{
					OFFSET -0.000000 11.746700 -0.000000
					CHANNELS 3 Zrotation Yrotation Xrotation
					JOINT Neck
					{
						OFFSET 0.000000 17.658264 0.000000
						CHANNELS 3 Zrotation Yrotation Xrotation
						JOINT Neck1
						{
							OFFSET -0.000000 5.101515 -0.000000
							CHANNELS 3 Zrotation Yrotation Xrotation
							JOINT Head
							{
								OFFSET 0.000000 5.101515 0.000000
								CHANNELS 3 Zrotation Yrotation Xrotation
								JOINT HeadEnd
								{
									OFFSET 0.000000 11.655085 0.000000
									CHANNELS 3 Zrotation Yrotation Xrotation
									End Site
									{
										OFFSET 0.000000 0.000000 0.000000
									}
								}
							}
						}
					}
					JOINT RightShoulder
					{
						OFFSET -2.625389 11.175210 -0.000000
						CHANNELS 3 Zrotation Yrotation Xrotation
						JOINT RightArm
						{
							OFFSET -0.000000 10.434715 0.000000
							CHANNELS 3 Zrotation Yrotation Xrotation
							JOINT RightForeArm
							{
								OFFSET -0.000000 29.628420 0.000000
								CHANNELS 3 Zrotation Yrotation Xrotation
								JOINT RightHand
								{
									OFFSET -0.000000 22.857611 -0.000000
									CHANNELS 3 Zrotation Yrotation Xrotation
									JOINT RightHandThumb1
									{
										OFFSET -2.867323 3.959563 2.944291
										CHANNELS 3 Zrotation Yrotation Xrotation
										JOINT RightHandThumb2
										{
											OFFSET 0.000000 3.350399 0.000000
											CHANNELS 3 Zrotation Yrotation Xrotation
											JOINT RightHandThumb3
											{
												OFFSET 0.000000 3.756509 0.000000
												CHANNELS 3 Zrotation Yrotation Xrotation
												JOINT RightHandThumb4
												{
													OFFSET 0.000000 3.147345 0.000000
													CHANNELS 3 Zrotation Yrotation Xrotation
													End Site
													{
														OFFSET 0.000000 0.000000 0.000000
													}
												}
											}
										}
									}
									JOINT RightHandIndex1
									{
										OFFSET -0.086752 10.030893 2.345280
										CHANNELS 3 Zrotation Yrotation Xrotation
										JOINT RightHandIndex2
										{
											OFFSET -0.000000 4.061090 -0.000000
											CHANNELS 3 Zrotation Yrotation Xrotation
											JOINT RightHandIndex3
											{
												OFFSET 0.000000 3.248873 0.000000
												CHANNELS 3 Zrotation Yrotation Xrotation
												JOINT RightHandIndex4
												{
													OFFSET 0.000000 2.639709 0.000000
													CHANNELS 3 Zrotation Yrotation Xrotation
													End Site
													{
														OFFSET 0.000000 0.000000 0.000000
													}
												}
											}
										}
									}
									JOINT RightHandMiddle1
									{
										OFFSET 0.104102 9.502952 0.006768
										CHANNELS 3 Zrotation Yrotation Xrotation
										JOINT RightHandMiddle2
										{
											OFFSET -0.000000 4.568727 -0.000000
											CHANNELS 3 Zrotation Yrotation Xrotation
											JOINT RightHandMiddle3
											{
												OFFSET 0.000000 3.654981 0.000000
												CHANNELS 3 Zrotation Yrotation Xrotation
												JOINT RightHandMiddle4
												{
													OFFSET -0.000000 2.741236 0.000000
													CHANNELS 3 Zrotation Yrotation Xrotation
													End Site
													{
														OFFSET 0.000000 0.000000 0.000000
													}
												}
											}
										}
									}
									JOINT RightHandRing1
									{
										OFFSET 0.086752 8.921708 -2.267442
										CHANNELS 3 Zrotation Yrotation Xrotation
										JOINT RightHandRing2
										{
											OFFSET 0.000000 4.061090 -0.000000
											CHANNELS 3 Zrotation Yrotation Xrotation
											JOINT RightHandRing3
											{
												OFFSET 0.000000 3.654981 -0.000000
												CHANNELS 3 Zrotation Yrotation Xrotation
												JOINT RightHandRing4
												{
													OFFSET 0.000000 2.741236 0.000000
													CHANNELS 3 Zrotation Yrotation Xrotation
													End Site
													{
														OFFSET 0.000000 0.000000 0.000000
													}
												}
											}
										}
									}
									JOINT RightHandPinky1
									{
										OFFSET -0.173504 7.976997 -4.467199
										CHANNELS 3 Zrotation Yrotation Xrotation
										JOINT RightHandPinky2
										{
											OFFSET -0.000000 3.350399 -0.000000
											CHANNELS 3 Zrotation Yrotation Xrotation
											JOINT RightHandPinky3
											{
												OFFSET 0.000000 2.842763 -0.000000
												CHANNELS 3 Zrotation Yrotation Xrotation
												JOINT RightHandPinky4
												{
													OFFSET -0.000000 2.639709 0.000000
													CHANNELS 3 Zrotation Yrotation Xrotation
													End Site
													{
														OFFSET 0.000000 0.000000 0.000000
													}
												}
											}
										}
									}
									JOINT RightForeArmEnd
									{
										OFFSET 0.000000 0.000000 0.000000
										CHANNELS 3 Zrotation Yrotation Xrotation
										End Site
										{
											OFFSET 0.000000 0.000000 0.000000
										}
									}
								}
								JOINT RightArmEnd
								{
									OFFSET 0.000000 0.000000 0.000000
									CHANNELS 3 Zrotation Yrotation Xrotation
									End Site
									{
										OFFSET 0.000000 0.000000 0.000000
									}
								}
							}
						}
					}
					JOINT LeftShoulder
					{
						OFFSET 2.625389 11.175210 0.000000
						CHANNELS 3 Zrotation Yrotation Xrotation
						JOINT LeftArm
						{
							OFFSET 0.000000 10.813635 0.000000
							CHANNELS 3 Zrotation Yrotation Xrotation
							JOINT LeftForeArm
							{
								OFFSET 0.000000 28.724781 -0.000000
								CHANNELS 3 Zrotation Yrotation Xrotation
								JOINT LeftHand
								{
									OFFSET 0.644384 25.716167 -0.328871
									CHANNELS 3 Zrotation Yrotation Xrotation
									JOINT LeftHandThumb1
									{
										OFFSET 2.867323 3.959563 2.944291
										CHANNELS 3 Zrotation Yrotation Xrotation
										JOINT LeftHandThumb2
										{
											OFFSET -0.000000 3.350399 0.000000
											CHANNELS 3 Zrotation Yrotation Xrotation
											JOINT LeftHandThumb3
											{
												OFFSET 0.000000 3.756509 -0.000000
												CHANNELS 3 Zrotation Yrotation Xrotation
												JOINT LeftHandThumb4
												{
													OFFSET 0.000000 3.100000 -0.000000
													CHANNELS 3 Zrotation Yrotation Xrotation
													End Site
													{
														OFFSET 0.000000 0.000000 0.000000
													}
												}
											}
										}
									}
									JOINT LeftHandIndex1
									{
										OFFSET 0.086752 10.030893 2.345280
										CHANNELS 3 Zrotation Yrotation Xrotation
										JOINT LeftHandIndex2
										{
											OFFSET -0.000000 4.061090 0.000000
											CHANNELS 3 Zrotation Yrotation Xrotation
											JOINT LeftHandIndex3
											{
												OFFSET 0.000000 3.248873 -0.000000
												CHANNELS 3 Zrotation Yrotation Xrotation
												JOINT LeftHandIndex4
												{
													OFFSET 0.000000 2.639709 0.000000
													CHANNELS 3 Zrotation Yrotation Xrotation
													End Site
													{
														OFFSET 0.000000 0.000000 0.000000
													}
												}
											}
										}
									}
									JOINT LeftHandMiddle1
									{
										OFFSET -0.104102 9.502952 0.006768
										CHANNELS 3 Zrotation Yrotation Xrotation
										JOINT LeftHandMiddle2
										{
											OFFSET 0.000000 4.568727 -0.000000
											CHANNELS 3 Zrotation Yrotation Xrotation
											JOINT LeftHandMiddle3
											{
												OFFSET -0.000000 3.654981 0.000000
												CHANNELS 3 Zrotation Yrotation Xrotation
												JOINT LeftHandMiddle4
												{
													OFFSET -0.000000 2.741236 0.000000
													CHANNELS 3 Zrotation Yrotation Xrotation
													End Site
													{
														OFFSET 0.000000 0.000000 0.000000
													}
												}
											}
										}
									}
									JOINT LeftHandRing1
									{
										OFFSET -0.086752 8.921708 -2.267442
										CHANNELS 3 Zrotation Yrotation Xrotation
										JOINT LeftHandRing2
										{
											OFFSET 0.000000 4.061090 0.000000
											CHANNELS 3 Zrotation Yrotation Xrotation
											JOINT LeftHandRing3
											{
												OFFSET -0.000000 3.654981 0.000000
												CHANNELS 3 Zrotation Yrotation Xrotation
												JOINT LeftHandRing4
												{
													OFFSET 0.000000 2.741236 -0.000000
													CHANNELS 3 Zrotation Yrotation Xrotation
													End Site
													{
														OFFSET 0.000000 0.000000 0.000000
													}
												}
											}
										}
									}
									JOINT LeftHandPinky1
									{
										OFFSET 0.173504 7.976997 -4.467199
										CHANNELS 3 Zrotation Yrotation Xrotation
										JOINT LeftHandPinky2
										{
											OFFSET -0.000000 3.350399 0.000000
											CHANNELS 3 Zrotation Yrotation Xrotation
											JOINT LeftHandPinky3
											{
												OFFSET -0.000000 2.842763 0.000000
												CHANNELS 3 Zrotation Yrotation Xrotation
												JOINT LeftHandPinky4
												{
													OFFSET -0.000000 2.639709 0.000000
													CHANNELS 3 Zrotation Yrotation Xrotation
													End Site
													{
														OFFSET 0.000000 0.000000 0.000000
													}
												}
											}
										}
									}
									JOINT LeftForeArmEnd
									{
										OFFSET 0.000000 0.000000 0.000000
										CHANNELS 3 Zrotation Yrotation Xrotation
										End Site
										{
											OFFSET 0.000000 0.000000 0.000000
										}
									}
								}
								JOINT LeftArmEnd
								{
									OFFSET 0.000000 0.000000 0.000000
									CHANNELS 3 Zrotation Yrotation Xrotation
									End Site
									{
										OFFSET 0.000000 0.000000 0.000000
									}
								}
							}
						}
					}
				}
			}
		}
	}
	JOINT RightUpLeg
	{
		OFFSET -11.289943 -0.000000 -0.000000
		CHANNELS 3 Zrotation Yrotation Xrotation
		JOINT RightLeg
		{
			OFFSET -0.000000 -38.200325 -0.000000
			CHANNELS 3 Zrotation Yrotation Xrotation
			JOINT RightFoot
			{
				OFFSET 0.000000 -39.900856 -0.000000
				CHANNELS 3 Zrotation Yrotation Xrotation
				JOINT RightToeBase
				{
					OFFSET -0.000000 0.000000 15.261641
					CHANNELS 3 Zrotation Yrotation Xrotation
					JOINT RightToeBaseEnd
					{
						OFFSET -0.000000 -0.000000 7.370709
						CHANNELS 3 Zrotation Yrotation Xrotation
						End Site
						{
							OFFSET 0.000000 0.000000 0.000000
						}
					}
				}
				JOINT RightLegEnd
				{
					OFFSET 0.000000 0.000000 0.000000
					CHANNELS 3 Zrotation Yrotation Xrotation
					End Site
					{
						OFFSET 0.000000 0.000000 0.000000
					}
				}
			}
			JOINT RightUpLegEnd
			{
				OFFSET 0.000000 0.000000 0.000000
				CHANNELS 3 Zrotation Yrotation Xrotation
				End Site
				{
					OFFSET 0.000000 0.000000 0.000000
				}
			}
		}
	}
	JOINT LeftUpLeg
	{
		OFFSET 11.315661 0.000000 0.000000
		CHANNELS 3 Zrotation Yrotation Xrotation
		JOINT LeftLeg
		{
			OFFSET -0.000000 -38.200325 -0.000000
			CHANNELS 3 Zrotation Yrotation Xrotation
			JOINT LeftFoot
			{
				OFFSET -0.000000 -39.900856 0.000000
				CHANNELS 3 Zrotation Yrotation Xrotation
				JOINT LeftToeBase
				{
					OFFSET -0.000000 0.000000 15.261641
					CHANNELS 3 Zrotation Yrotation Xrotation
					JOINT LeftToeBaseEnd
					{
						OFFSET 0.000000 -0.000000 7.539996
						CHANNELS 3 Zrotation Yrotation Xrotation
						End Site
						{
							OFFSET 0.000000 0.000000 0.000000
						}
					}
				}
				JOINT LeftLegEnd
				{
					OFFSET 0.000000 0.000000 0.000000
					CHANNELS 3 Zrotation Yrotation Xrotation
					End Site
					{
						OFFSET 0.000000 0.000000 0.000000
					}
				}
			}
			JOINT LeftUpLegEnd
			{
				OFFSET 0.000000 0.000000 0.000000
				CHANNELS 3 Zrotation Yrotation Xrotation
				End Site
				{
					OFFSET 0.000000 0.000000 0.000000
				}
			}
		}
	}
}
MOTION
Frames: 4
Frame Time: 0.016667
-13.391962 85.880486 15.244422 -2.818660 -7.306092 -13.667514 2.733187 -0.335427 6.123877 -3.440633 0.931187 2.045926 5.993679 -3.074639 12.658902 0.544567 -0.101471 2.414098 -15.001016 4.741257 12.164042 2.666505 1.938606 -6.278993 -2.227110 -4.170741 -24.600206 0.000000 0.000000 0.000000 94.049698 -1.060212 2.740003 56.168774 -31.607597 5.880816 1.199182 11.491047 38.915970 -0.121999 17.870358 -12.487003 10.637317 -1.782360 39.941128 0.000018 0.000015 -26.243740 -0.000003 0.000034 -18.067938 0.000006 0.000002 -0.000019 18.701387 17.288521 -14.287724 14.631065 -0.572410 -2.945044 14.539153 0.444576 -2.837471 -0.000003 -0.000006 -0.000029 21.816175 7.105464 -14.400103 15.489796 -0.807760 -1.333620 15.374401 0.185466 -1.160981 0.000007 0.000126 0.000000 28.945278 -9.052799 -12.115675 18.037268 1.692429 2.045439 18.023701 -0.284292 1.600495 -0.000025 0.000782 0.000033 34.254333 -25.487726 -11.571384 18.417994 3.036495 6.238575 18.368013 -0.902584 5.293653 -0.000408 -0.000011 -0.000016 0.000000 0.000000 0.000000 0.000000 0.000000 0.000000 -94.835388 0.925461 2.975719 -63.737286 31.541063 -2.781479 -4.741869 -19.417542 49.217342 5.839417 -14.483915 -20.029318 -9.649678 1.794141 40.231117 -0.000021 0.000032 -23.682171 -0.000173 -0.000005 -16.396935 0.000517 -0.000052 -0.002787 -14.152739 16.494461 -7.268454 -7.931956 -0.781541 2.388892 -8.230200 0.184837 2.330724 0.000017 -0.001172 0.000012 -13.356812 6.830145 -9.062114 -8.375332 -0.896397 1.051859 -8.345001 0.085984 0.928754 0.000840 -0.000043 0.000048 -12.308896 -8.663964 -11.086679 -8.996461 1.829163 -1.489555 -8.901914 -0.114477 -1.194507 0.003145 0.000001 -0.000002 -8.193890 -24.668888 -15.880300 -8.377792 3.593620 -4.092490 -8.460973 -0.307884 -3.640321 0.000211 -0.000007 -0.000053 0.000000 0.000000 0.000000 0.000000 0.000000 0.000000 6.431130 3.555996 11.243531 -0.059948 -0.026764 18.308950 -9.491908 -1.399589 12.140949 0.412405 -0.355809 -26.916525 0.000000 0.000000 0.000000 0.000000 0.000000 0.000000 0.000000 0.000000 0.000000 14.245914 -1.088372 11.750051 0.498201 1.049801 30.258625 -10.033395 16.978182 11.967288 0.583563 0.904614 -30.303452 0.000000 0.000000 0.000000 0.000000 0.000000 0.000000 0.000000 0.000000 0.000000 
-13.587045 85.881577 15.183803 -2.892441 -7.680206 -13.565584 2.784980 -0.353558 6.089283 -3.445146 0.928518 2.086541 6.081567 -3.161665 12.624447 0.536412 -0.113366 2.389166 -15.118251 4.872042 12.097262 2.673258 2.048725 -6.296019 -2.265640 -4.184069 -24.537937 0.000000 0.000000 0.000000 94.038345 -1.074671 2.730412 55.947556 -31.778402 6.012437 1.196416 11.481841 38.956123 0.212861 17.874508 -12.563999 10.551723 -1.776894 39.977417 0.000018 0.000015 -26.038462 -0.000003 0.000034 -17.919012 0.000006 0.000002 -0.000019 18.312063 17.286711 -14.221881 14.373912 -0.589927 -2.879461 14.282129 0.428289 -2.775842 -0.000004 -0.000006 -0.000029 21.443066 7.103069 -14.369981 15.215004 -0.815119 -1.306240 15.104202 0.179592 -1.138226 0.000007 0.000125 0.000000 28.588099 -9.046027 -12.156128 17.740335 1.704279 2.008399 17.727470 -0.275753 1.572417 -0.000025 0.000816 0.000033 33.971478 -25.461132 -11.692460 18.155693 3.068698 6.140418 18.109138 -0.875628 5.213430 -0.000372 -0.000011 -0.000016 0.000000 0.000000 0.000000 0.000000 0.000000 0.000000 -94.849892 0.928876 2.991017 -63.644791 31.565786 -2.635623 -4.729959 -19.438486 49.141796 5.785635 -14.315205 -20.059919 -9.539280 1.781852 40.281872 -0.000021 0.000032 -23.411282 -0.000174 -0.000005 -16.212254 0.000502 -0.000052 -0.002699 -13.618600 16.505232 -7.110481 -7.649098 -0.793533 2.331426 -7.947123 0.173300 2.278686 0.000017 -0.001200 0.000012 -12.889181 6.831786 -8.958056 -8.095304 -0.901487 1.028811 -8.059773 0.081936 0.909443 0.000848 -0.000043 0.000047 -11.889648 -8.665215 -11.044154 -8.732516 1.836715 -1.460282 -8.633964 -0.109124 -1.172038 0.003134 0.000001 -0.000002 -7.800775 -24.667871 -15.914502 -8.146955 3.612514 -4.012535 -8.231940 -0.293098 -3.574055 0.000227 -0.000007 -0.000053 0.000000 0.000000 0.000000 0.000000 0.000000 0.000000 6.646364 3.673825 11.124936 -0.056578 -0.014940 18.250906 -9.660450 -1.275243 12.230258 0.426752 -0.358733 -26.933626 0.000000 0.000000 0.000000 0.000000 0.000000 0.000000 0.000000 0.000000 0.000000 14.389201 -1.135406 11.538775 0.501495 1.044207 30.530764 -10.122805 17.147831 12.050053 0.570642 0.919642 -30.398886 0.000000 0.000000 0.000000 0.000000 0.000000 0.000000 0.000000 0.000000 0.000000 
-13.772758 85.882446 15.122049 -2.963488 -8.071567 -13.462139 2.837354 -0.372418 6.058145 -3.446728 0.924176 2.123771 6.162988 -3.243239 12.595720 0.528459 -0.124478 2.365370 -15.231972 5.006804 12.030046 2.681998 2.163843 -6.313368 -2.303385 -4.196751 -24.476128 0.000000 0.000000 0.000000 94.027405 -1.089153 2.727057 55.733952 -31.946411 6.140827 1.195281 11.469799 38.994522 0.560862 17.927628 -12.644055 10.465061 -1.771394 40.014103 0.000018 0.000016 -25.830305 -0.000002 0.000033 -17.767971 0.000006 0.000003 -0.000019 17.908966 17.283012 -14.171247 14.101537 -0.608066 -2.811280 14.009640 0.411414 -2.711730 -0.000004 -0.000006 -0.000029 21.055490 7.099883 -14.351859 14.924548 -0.822759 -1.277733 14.817736 0.173471 -1.114492 0.000008 0.000123 0.000000 28.214527 -9.038582 -12.203624 17.426508 1.716525 1.969959 17.414675 -0.266893 1.543136 -0.000025 0.000850 0.000032 33.671642 -25.433531 -11.817242 17.877407 3.101928 6.038469 17.834349 -0.847873 5.129566 -0.000332 -0.000011 -0.000015 0.000000 0.000000 0.000000 0.000000 0.000000 0.000000 -94.865021 0.933075 3.006494 -63.552586 31.607027 -2.489642 -4.720239 -19.441923 49.035099 5.732077 -14.125541 -20.095238 -9.424806 1.769197 40.334473 -0.000021 0.000032 -23.129593 -0.000175 -0.000004 -16.020613 0.000484 -0.000052 -0.002608 -13.060422 16.514673 -6.956095 -7.348640 -0.805716 2.272698 -7.646122 0.161573 2.225299 0.000016 -0.001229 0.000012 -12.397049 6.832947 -8.858211 -7.797710 -0.906690 1.005219 -7.757009 0.077789 0.889659 0.000854 -0.000042 0.000046 -11.442331 -8.666195 -11.003122 -8.449612 1.844501 -1.430341 -8.347198 -0.103637 -1.148980 0.003120 0.000001 -0.000002 -7.378328 -24.667236 -15.948457 -7.898904 3.631646 -3.930923 -7.985649 -0.278140 -3.506252 0.000245 -0.000007 -0.000053 0.000000 0.000000 0.000000 0.000000 0.000000 0.000000 6.853768 3.798097 11.007519 -0.053257 -0.003406 18.187630 -9.827334 -1.133921 12.322712 0.441013 -0.361324 -26.950752 0.000000 0.000000 0.000000 0.000000 0.000000 0.000000 0.000000 0.000000 0.000000 14.523123 -1.180006 11.332556 0.504557 1.038453 30.801208 -10.206820 17.322117 12.132533 0.556529 0.933935 -30.496216 0.000000 0.000000 0.000000 0.000000 0.000000 0.000000 0.000000 0.000000 0.000000 
-13.949154 85.882828 15.059861 -3.031660 -8.477814 -13.358161 2.889437 -0.391820 6.030548 -3.445009 0.918096 2.156830 6.236878 -3.319066 12.574433 0.520899 -0.135264 2.342906 -15.343399 5.145373 11.962517 2.692583 2.283566 -6.330621 -2.340107 -4.208779 -24.415342 0.000000 0.000000 0.000000 94.018372 -1.103987 2.729593 55.532028 -32.113235 6.264602 1.195493 11.454118 39.024982 0.912724 18.028854 -12.730803 10.377762 -1.765756 40.051174 0.000018 0.000016 -25.620251 -0.000002 0.000033 -17.615648 0.000006 0.000003 -0.000019 17.494869 17.278130 -14.135133 13.818196 -0.626477 -2.741549 13.725899 0.394278 -2.646121 -0.000004 -0.000006 -0.000029 20.654808 7.096282 -14.345403 14.622254 -0.830554 -1.248515 14.518639 0.167212 -1.090127 0.000008 0.000120 0.000000 27.824306 -9.030925 -12.258072 17.098417 1.728951 1.930631 17.087837 -0.257859 1.513033 -0.000025 0.000880 0.000032 33.353420 -25.406029 -11.945761 17.584520 3.135630 5.933884 17.545084 -0.819791 5.043009 -0.000287 -0.000011 -0.000015 0.000000 0.000000 0.000000 0.000000 0.000000 0.000000 -94.882195 0.937442 3.021577 -63.460213 31.666849 -2.343872 -4.712606 -19.429337 48.896423 5.679131 -13.922668 -20.139000 -9.308989 1.756320 40.387798 -0.000021 0.000032 -22.843815 -0.000177 -0.000004 -15.826653 0.000466 -0.000052 -0.002514 -12.490099 16.523373 -6.807559 -7.038658 -0.817850 2.213879 -7.335443 0.149905 2.171602 0.000016 -0.001259 0.000012 -11.891160 6.833876 -8.763983 -7.490520 -0.911923 0.981525 -7.444841 0.073622 0.869763 0.000858 -0.000041 0.000045 -10.977696 -8.667331 -10.964270 -8.156205 1.852390 -1.400348 -8.049977 -0.098132 -1.125773 0.003103 0.000001 -0.000002 -6.937887 -24.668474 -15.982483 -7.642109 3.650617 -3.849444 -7.730577 -0.263374 -3.438295 0.000265 -0.000007 -0.000053 0.000000 0.000000 0.000000 0.000000 0.000000 0.000000 7.053347 3.929010 10.891615 -0.050029 0.007824 18.120440 -9.992170 -0.975035 12.416611 0.455317 -0.363554 -26.968025 0.000000 0.000000 0.000000 0.000000 0.000000 0.000000 0.000000 0.000000 0.000000 14.647452 -1.222405 11.132258 0.507367 1.032575 31.069485 -10.285425 17.499603 12.213808 0.541452 0.947510 -30.595158 0.000000 0.000000 0.000000 0.000000 0.000000 0.000000 0.000000 0.000000 0.000000 
